<svg width="0" height="0" class="hidden">

	<symbol xmlns="http://www.w3.org/2000/svg" viewBox="0 0 24 24" id="linkedin"><path d="M20.47 2H3.53a1.45 1.45 0 00-1.47 1.43v17.14A1.45 1.45 0 003.53 22h16.94a1.45 1.45 0 001.47-1.43V3.43A1.45 1.45 0 0020.47 2zM8.09 18.74h-3v-9h3v9zM6.59 8.48a1.56 1.56 0 010-3.12 1.57 1.57 0 110 3.12zm12.32 10.26h-3v-4.83c0-1.21-.43-2-1.52-2A1.65 1.65 0 0012.85 13a2 2 0 00-.1.73v5h-3v-9h3V11a3 3 0 012.71-1.5c2 0 3.45 1.29 3.45 4.06v5.18z"/></symbol>

	<symbol xmlns="http://www.w3.org/2000/svg" viewBox="0 0 24 24" id="facebook"><path d="M15.12 5.32H17V2.14c-.91-.1-1.82-.14-2.74-.14-2.72 0-4.58 1.66-4.58 4.7v2.62H6.61v3.56h3.07V22h3.68v-9.12h3.06l.46-3.56h-3.52V7.05c0-1.05.28-1.73 1.76-1.73z"/></symbol>

	<symbol xmlns="http://www.w3.org/2000/svg" viewBox="0 0 24 24" id="twitter"><path d="M22 5.8a8.5 8.5 0 01-2.36.64 4.13 4.13 0 001.81-2.27 8.2 8.2 0 01-2.61 1 4.1 4.1 0 00-7 3.74 11.64 11.64 0 01-8.45-4.29 4.16 4.16 0 00-.07 4c.32.6.78 1.1 1.34 1.48a4.05 4.05 0 01-1.86-.51v.05a4.1 4.1 0 003.3 4 3.93 3.93 0 01-1.87.1 4.11 4.11 0 003.83 2.84A8.22 8.22 0 012 18.28a11.57 11.57 0 006.29 1.85A11.59 11.59 0 0020 8.45v-.53a8.43 8.43 0 002-2.12z"/></symbol>

	<symbol xmlns="http://www.w3.org/2000/svg" viewBox="0 0 24 24" id="envelope"><path d="M19 4H5a3 3 0 00-3 3v10a3 3 0 003 3h14a3 3 0 003-3V7a3 3 0 00-3-3zM5 6h14a1 1 0 011 1l-8 4.88L4 7a1 1 0 011-1zm15 11a1 1 0 01-1 1H5a1 1 0 01-1-1V9.28l7.48 4.57a1 1 0 001 0L20 9.28V17z"/></symbol>

	<symbol xmlns="http://www.w3.org/2000/svg" viewBox="0 0 30 30" id="phone"><path data-name="Контур 33" d="M30 2.8A27.2 27.2 0 012.8 30a1.4 1.4 0 01-1.4-1L0 22.7a1.4 1.4 0 01.9-1.6l6.5-2.8a1.4 1.4 0 011.7.4l2.9 3.5A21.7 21.7 0 0022.3 12l-3.5-3a1.4 1.4 0 01-.4-1.6L21.2.8a1.4 1.4 0 011.6-.8L29 1.4A1.4 1.4 0 0130 2.8z"/></symbol>

	<symbol xmlns="http://www.w3.org/2000/svg" viewBox="0 0 132 48" id="arrow-right"><path d="M106.1.9a3 3 0 014.3 0L131 21.6a3 3 0 01.9 2.4v.1a3 3 0 01-.9 2.3L110.4 47A3 3 0 01106 43L122 27H3a3 3 0 110-6h119L106.1 5.1a3 3 0 010-4.2z"/></symbol>

	<symbol xmlns="http://www.w3.org/2000/svg" viewBox="0 0 32 48" id="flame"><path d="M32 26.12C32 37.98 17.78 45.65 11.3 48 11.3 30.35 0 33.18 0 21.88 0 10.02 12.99 2.35 19.48 0 19.48 17.65 32 14.82 32 26.12z"/></symbol>
</svg>